<svg width="1200" height="620" viewBox="0 0 1200 620" fill="none" xmlns="http://www.w3.org/2000/svg">
<rect width="1200" height="620" fill="white"/>
<path d="M903.915 315.122C903.915 377.924 869.859 435.195 813.975 476.95C758.091 518.707 680.641 544.692 594.862 544.692C509.083 544.692 431.633 518.707 375.749 476.95C319.865 435.195 285.809 377.924 285.809 315.122C285.809 252.32 319.865 195.049 375.749 153.293C431.633 111.537 509.083 85.5516 594.862 85.5516C680.641 85.5516 758.091 111.537 813.975 153.293C869.859 195.049 903.915 252.32 903.915 315.122Z" stroke="#90CFB2" stroke-width="10.6892"/>
<circle r="74.4901" transform="matrix(-1 0 0 1 370.577 133.723)" fill="#E6F0FF"/>
<mask id="mask0_67_23217" style="mask-type:alpha" maskUnits="userSpaceOnUse" x="296" y="59" width="150" height="150">
<circle r="74.4901" transform="matrix(-1 0 0 1 370.577 133.723)" fill="#E6F0FF"/>
</mask>
<g mask="url(#mask0_67_23217)">
<path d="M383.433 137.733C377.755 132.722 377.445 128.653 377.755 120.864C361.387 120.864 350.313 110.397 346.856 105.498V124.232C346.856 132.228 299.284 151.704 293.745 156.272C296.108 163.097 324.153 201.866 336.167 207.045C401.588 235.246 429.004 180.497 436.044 172.138C433.859 170.213 429.229 167.479 422.516 162.117C415.802 156.755 386.784 140.689 383.433 137.733Z" fill="#763A40"/>
<path d="M325.98 196.023C336.535 169.167 330.545 147.922 325.479 139.404L333.997 135.229C355.776 183.063 394.568 188.118 411.159 184.499V196.023C383.809 223.292 338.81 210.269 325.98 196.023Z" fill="#90CFB2"/>
</g>
<ellipse cx="373.822" cy="78.3793" rx="35.4119" ry="47.1591" transform="rotate(-7.61681 373.822 78.3793)" fill="#82464C"/>
<path d="M397.808 90.4067C396.817 88.784 393.348 80.712 391.737 76.8789L393.756 93.0838C396.3 92.974 397.518 91.2534 397.808 90.4067Z" fill="#82464C"/>
<path d="M391.737 76.8789C393.348 80.712 396.817 88.784 397.808 90.4067C397.518 91.2534 396.3 92.974 393.756 93.0838" stroke="#07133D" stroke-width="1.00211" stroke-linecap="round"/>
<path d="M356.957 16.6522C371.156 13.196 382.502 19.602 386.4 23.237L385.619 26.7314L369.342 37.8358L337.427 34.7072C338.078 31.7952 339.208 20.9723 356.957 16.6522Z" fill="#90CFB2"/>
<path d="M394.589 25.2066C386.917 18.4355 377.309 27.7293 374.557 31.5303L391.413 44.2691L406.969 60.3865C407.171 54.9278 404.179 33.6705 394.589 25.2066Z" fill="#FDE533"/>
<path d="M406.109 55.8413C405.465 53.3257 404.07 49.8713 401.898 47.211C384.102 25.4184 352.902 20.6249 334.663 35.5176C316.423 50.4102 321.689 77.8693 329.614 88.4748C337.539 99.0803 341.597 101.171 345.495 104.053C347.101 96.8703 350.964 92.2925 351.264 84.4617L357.627 73.2003C361.233 70.7952 364.288 68.3865 366.903 66.0168C379.737 54.386 397.542 48.1892 405.757 63.4369C406.038 63.9588 406.309 64.487 406.569 65.0211C407.715 61.4783 406.753 58.3569 406.109 55.8413Z" fill="#1F6D48"/>
<ellipse cx="381.967" cy="81.5491" rx="1.57184" ry="1.92298" transform="rotate(-2.18529 381.967 81.5491)" fill="#07133D"/>
<ellipse rx="1.56222" ry="1.92216" transform="matrix(0.999209 -0.0397552 0.0365164 0.999333 401.104 78.4642)" fill="#07133D"/>
<path d="M379.159 69.7024C378.024 70.324 375.61 72.4475 375.035 75.9682" stroke="#07133D" stroke-width="1.00211" stroke-linecap="round"/>
<path d="M399.254 66.8315C400.012 66.9783 400.986 67.4105 401.424 69.3692" stroke="#07133D" stroke-width="1.00211" stroke-linecap="round"/>
<path d="M377.327 92.9414C377.826 98.3049 380.688 104.041 390.866 103.948" stroke="#FC6483" stroke-width="1.00211" stroke-linecap="round"/>
<path fill-rule="evenodd" clip-rule="evenodd" d="M359.449 74.4771C357.952 75.7146 356.773 77.6163 356.264 79.893C355.755 82.1692 356.011 84.3913 356.838 86.1481C355.327 87.397 353.494 87.9694 351.698 87.5679C348.124 86.7687 346.057 82.4123 347.08 77.8377C348.103 73.2631 351.829 70.2026 355.403 71.0019C357.199 71.4035 358.614 72.703 359.449 74.4771Z" fill="#763A40"/>
<ellipse cx="349.275" cy="95.8176" rx="5.01055" ry="11.3572" transform="rotate(12.6063 349.275 95.8176)" fill="#FC9729"/>
<circle r="74.4901" transform="matrix(-1 0 0 1 809.132 133.723)" fill="#E6F0FF"/>
<mask id="mask1_67_23217" style="mask-type:alpha" maskUnits="userSpaceOnUse" x="734" y="59" width="150" height="150">
<circle r="74.4901" transform="matrix(-1 0 0 1 809.13 133.723)" fill="#E6F0FF"/>
</mask>
<g mask="url(#mask1_67_23217)">
<path d="M813.537 135.44L807.598 138.405L775.005 277.381L811.211 289.008L815.964 286.577L853.983 135.594L851.368 135.49L821.068 136.322L813.537 135.44Z" fill="#F4F9FF"/>
<path d="M777.91 131.188C790.709 135.413 806.563 135.164 813.536 135.441C812.408 163.8 791.857 243.906 782.199 279.415C774.353 279.103 763.543 272.852 759.033 269.181C763.029 262.355 772.052 205.285 776.063 177.604C770.305 171.73 750.403 150.634 739.973 138.601C728.524 125.394 734.864 89.8911 744.525 72.1576C748.217 73.0029 754.416 72.2601 757.054 71.783C755.34 86.548 754.543 114.61 757.054 115.874C760.193 117.454 777.91 131.188 777.91 131.188Z" fill="#90CFB2"/>
<path d="M810.921 288.995C822.403 240.327 844.247 168.188 853.995 135.302C883.305 147.643 877.788 172.151 877.942 185.35L871.851 205.858C867.549 220.354 859.719 266.975 856.342 288.473C841.224 293.925 819.763 291.092 810.921 288.995Z" fill="#90CFB2"/>
</g>
<path d="M777.711 130.866C790.67 135.143 806.722 134.891 813.782 135.172L775.842 177.861C770.012 171.914 749.862 150.555 739.301 138.371C727.71 125 734.129 89.0544 743.911 71.0999C747.648 71.9557 753.925 71.2036 756.596 70.7205C754.861 85.6697 754.054 114.082 756.596 115.362C759.773 116.961 777.711 130.866 777.711 130.866Z" fill="#90CFB2"/>
<path d="M820.528 132.936C820.647 131.042 823.008 119.862 823.84 114.189C823.876 113.945 824.041 113.743 824.272 113.658L852.206 103.393C852.699 103.212 853.201 103.634 853.098 104.149C851.527 112.021 848.142 131.746 848.685 133.463C849.118 134.828 850.562 134.849 851.72 134.561C852.196 134.442 852.64 134.78 852.417 135.217C851.205 137.584 846.316 141.585 837.644 142.762C824.453 144.552 819.219 139.365 816.323 136.107C815.268 134.919 820.407 134.874 820.528 132.936Z" fill="#F5B8A9"/>
<path d="M795.297 130.435L820.582 128.815C820.887 128.796 821.139 128.572 821.196 128.273L822.608 120.833C822.639 120.67 822.608 120.501 822.522 120.36L794.338 74.1933C794.123 73.8401 794.276 73.3786 794.657 73.2173C810.284 66.6016 822.843 48.9121 827.549 40.2231C827.725 39.8969 827.598 39.4985 827.256 39.3535C823.27 37.6606 812.064 35.6926 799.995 45.0676C784.056 57.449 784.2 79.8932 785.541 92.9469C786.442 101.718 788.634 117.663 790.21 126.517C790.641 128.941 792.839 130.593 795.297 130.435Z" fill="#018FF6"/>
<ellipse rx="34.7157" ry="40.5775" transform="matrix(0.994268 -0.106915 0.080721 0.996737 826.85 80.5597)" fill="#F5C6B8"/>
<ellipse cx="824.693" cy="76.0809" rx="2.54028" ry="2.35535" transform="rotate(-9.47417 824.693 76.0809)" fill="#744F41"/>
<ellipse cx="801.104" cy="79.4222" rx="2.22274" ry="2.35535" transform="rotate(-9.47417 801.104 79.4222)" fill="#744F41"/>
<path d="M825.999 66.0703C827.512 66.1362 829.907 66.2905 831.604 68.0442" stroke="#353553" stroke-width="1.00211" stroke-linecap="round"/>
<path d="M799.725 72.7137C799.011 72.9128 797.434 73.7196 796.835 75.3539" stroke="#353553" stroke-width="1.00211" stroke-linecap="round"/>
<path d="M811.821 74.1726C811.843 73.8969 811.638 73.6549 811.362 73.6322C811.086 73.6095 810.845 73.8147 810.822 74.0905L811.821 74.1726ZM809.771 92.9817L809.272 92.9406C809.249 93.2135 809.45 93.4538 809.723 93.4804L809.771 92.9817ZM815.954 91.5577C816.07 91.3065 815.96 91.0088 815.709 90.8928C815.458 90.7768 815.16 90.8864 815.044 91.1376L815.954 91.5577ZM810.822 74.0905L809.272 92.9406L810.271 93.0228L811.821 74.1726L810.822 74.0905ZM809.723 93.4804C810.634 93.5693 811.913 93.6125 813.085 93.3937C814.233 93.1794 815.434 92.6827 815.954 91.5577L815.044 91.1376C814.737 91.803 813.964 92.2101 812.901 92.4086C811.861 92.6027 810.689 92.5678 809.82 92.483L809.723 93.4804Z" fill="#744F41"/>
<path d="M826.965 96.1917C823.301 100.294 821.768 102.224 813.399 104.026" stroke="#FB718A" stroke-width="1.00211" stroke-linecap="round"/>
<path d="M848.4 76.4807C843.446 74.5122 829.933 51.5484 825.291 39.1851C825.153 38.8187 825.388 38.4191 825.767 38.3224C867.008 27.8021 871.625 67.0117 873.158 87.7884C874.039 99.7275 873.457 111.13 873.887 118.661C874.084 122.116 871.42 125.834 867.965 126.03L849.962 127.051C849.579 127.073 849.256 126.768 849.256 126.384L849.256 112.687C849.86 108.151 853.446 78.4856 848.4 76.4807Z" fill="#018FF6"/>
<path d="M790.766 76.3315C797.755 73.0116 829.196 49.7422 828.374 39.5205C828.351 39.2414 828.13 39.0336 827.853 38.9919C813.769 36.8709 799.46 48.3949 795.332 54.6861C792.183 59.4842 790.516 70.1564 789.985 75.7265C789.941 76.189 790.346 76.5309 790.766 76.3315Z" fill="#018FF6"/>
<path d="M838.582 72.698C839.503 80.3961 834.719 87.208 828.167 88.1332C821.615 89.0584 815.388 83.8013 814.467 76.1032C813.545 68.405 818.329 61.5932 824.881 60.668C831.433 59.7428 837.661 64.9999 838.582 72.698Z" stroke="#FC6483" stroke-width="2.00422"/>
<path d="M813.716 73.544V73.544C811.752 73.4896 809.804 73.9126 808.039 74.7768L807.825 74.8816" stroke="#FC6483" stroke-width="2.00422" stroke-linecap="round"/>
<path d="M808.332 78.6677C808.535 86.1357 803.868 91.9455 798.356 92.1159C792.843 92.2863 787.868 86.7746 787.664 79.3066C787.46 71.8385 792.127 66.0288 797.64 65.8583C803.152 65.6879 808.128 71.1996 808.332 78.6677Z" stroke="#FC6483" stroke-width="2.00422"/>
<path d="M838.508 72.2871L849.945 76.0507" stroke="#FC6483" stroke-width="2.00422"/>
<path d="M850.293 90.8242C854.34 91.2433 858.087 87.7659 858.662 83.0574C859.237 78.3489 856.422 74.1922 852.375 73.7732C849.982 73.5253 847.693 74.6405 846.104 76.5673C848.635 78.1099 850.156 81.3695 849.719 84.9477C849.484 86.8714 848.719 88.5895 847.622 89.9204C848.421 90.4077 849.321 90.7236 850.293 90.8242Z" fill="#F5B8A9"/>
<path d="M747.023 58.5454C746.103 62.4342 745.309 68.794 744.687 71.4257C750.656 76.1184 754.379 75.3242 755.494 74.3406L755.495 74.3397C756.554 72.1355 757.656 69.8431 759.837 67.3098C761.871 64.9477 767.018 58.3863 765.572 56.7147C764.127 55.043 761.838 59.8047 760.152 59.9711C759.006 60.0842 759.565 56.1742 760.078 52.7714C760.509 49.9223 760.584 47.0414 761.685 44.7509C763.63 40.7042 764.288 32.6505 757.576 36.5888C751.474 40.1693 748.267 53.2819 747.023 58.5454Z" fill="#F5B8A9"/>
<circle cx="589.609" cy="321.455" r="122.257" fill="#FC9729"/>
<mask id="mask2_67_23217" style="mask-type:alpha" maskUnits="userSpaceOnUse" x="467" y="199" width="245" height="245">
<circle cx="589.609" cy="321.455" r="122.257" fill="#E5E5E5"/>
</mask>
<g mask="url(#mask2_67_23217)">
<path d="M701.885 347.556C691.271 342.418 657.531 332.771 632.084 317.738L625.704 313.272C624 303.411 624 293.331 625.704 283.47C625.704 283.47 608.184 278.829 596.87 282.419C585.526 278.829 568.035 283.47 568.035 283.47C569.739 293.331 569.739 303.411 568.035 313.272L561.655 317.738C536.208 332.771 502.454 342.418 491.854 347.556C481.255 352.693 479.634 378.715 484.131 391.894C487.854 402.782 569.174 395.003 596.87 391.442C624.609 395.003 705.871 402.782 709.593 391.894C714.09 378.657 712.484 352.693 701.885 347.556Z" fill="#82464C"/>
<path d="M701.882 347.557C691.268 342.419 657.528 332.772 632.081 317.739C635.702 301.685 624.781 307.246 624.781 307.246C601.67 313.77 579.522 308.048 569.025 305.173C558.528 302.298 561.594 317.739 561.594 317.739C536.147 332.772 502.393 342.419 491.793 347.557C481.194 352.694 479.573 378.716 484.07 391.896C487.793 402.783 564.922 464.475 592.617 460.914C620.357 464.475 705.809 402.783 709.532 391.896C714.087 378.658 712.481 352.694 701.882 347.557Z" fill="#1890F1"/>
</g>
<path d="M523.573 210.351C523.573 210.351 513.514 178.067 516.069 161.487C518.624 144.908 539.428 129.948 571.299 130.605C603.17 131.262 636.341 105.239 657.437 109.472C676.008 113.179 685.41 131.159 684.432 150.337C683.454 169.515 676.125 213.328 664.182 224.114C652.24 234.899 540.363 220.859 540.363 220.859L523.573 210.351Z" fill="#09133C"/>
<path d="M661.949 245.407C670.625 245.407 677.659 236.076 677.659 224.566C677.659 213.056 670.625 203.725 661.949 203.725C653.273 203.725 646.24 213.056 646.24 224.566C646.24 236.076 653.273 245.407 661.949 245.407Z" fill="#82464C"/>
<path d="M531.779 245.407C540.455 245.407 547.488 236.076 547.488 224.566C547.488 213.056 540.455 203.725 531.779 203.725C523.103 203.725 516.07 213.056 516.07 224.566C516.07 236.076 523.103 245.407 531.779 245.407Z" fill="#82464C"/>
<path d="M664.227 217.721C664.227 254.909 634.064 297.992 596.864 297.992C559.665 297.992 529.502 254.967 529.502 217.721C529.502 199.861 536.599 182.733 549.232 170.104C561.865 157.476 578.999 150.381 596.864 150.381C614.73 150.381 631.864 157.476 644.497 170.104C657.13 182.733 664.227 199.861 664.227 217.721Z" fill="#82464C"/>
<path fill-rule="evenodd" clip-rule="evenodd" d="M570.643 195.55C568.7 195.4 566.752 195.781 565.008 196.652C563.265 197.524 561.791 198.853 560.745 200.497C560.529 200.837 560.078 200.938 559.738 200.722C559.397 200.505 559.297 200.054 559.513 199.714C560.701 197.846 562.375 196.337 564.355 195.347C566.336 194.357 568.548 193.924 570.756 194.095C571.158 194.126 571.458 194.477 571.427 194.879C571.396 195.281 571.045 195.581 570.643 195.55Z" fill="#09133C"/>
<path fill-rule="evenodd" clip-rule="evenodd" d="M622.969 194.095C625.176 193.924 627.389 194.357 629.369 195.347C631.35 196.337 633.024 197.846 634.211 199.714C634.428 200.054 634.327 200.505 633.987 200.722C633.647 200.938 633.196 200.837 632.979 200.497C631.934 198.853 630.46 197.524 628.716 196.652C626.973 195.781 625.025 195.4 623.082 195.55C622.68 195.581 622.329 195.281 622.297 194.879C622.266 194.477 622.567 194.126 622.969 194.095Z" fill="#09133C"/>
<path fill-rule="evenodd" clip-rule="evenodd" d="M598.746 210.605C599.13 210.483 599.541 210.695 599.663 211.079L598.968 211.3C599.663 211.079 599.663 211.078 599.663 211.079L599.664 211.083L599.667 211.092L599.679 211.129C599.689 211.161 599.704 211.208 599.722 211.27C599.76 211.393 599.815 211.575 599.883 211.811C600.021 212.283 600.214 212.971 600.44 213.845C600.893 215.591 601.477 218.076 602.006 221.038C603.061 226.955 603.902 234.812 603.007 242.501C602.977 242.76 602.811 242.983 602.571 243.086C601.383 243.6 600.102 243.864 598.807 243.864C597.512 243.864 596.231 243.6 595.043 243.086C594.673 242.926 594.502 242.497 594.662 242.127C594.822 241.757 595.252 241.587 595.622 241.746C596.627 242.181 597.711 242.405 598.807 242.405C599.763 242.405 600.711 242.234 601.605 241.902C602.397 234.548 601.592 227.029 600.568 221.294C600.048 218.375 599.472 215.927 599.027 214.211C598.805 213.353 598.615 212.678 598.482 212.219C598.415 211.989 598.362 211.814 598.326 211.696C598.308 211.637 598.294 211.593 598.285 211.564L598.275 211.531L598.273 211.524L598.272 211.522" fill="#09133C"/>
<path d="M529.5 215.415C529.5 215.415 541.676 212.744 549.268 188.137C549.268 188.137 596.833 152.832 646.239 188.137C646.239 188.137 648.516 205.651 664.167 215.415C664.167 215.415 667.248 209.475 666.05 191.45C664.853 173.426 665.452 155.999 646.239 149.461C627.025 142.922 614.543 133.217 581.854 142.922C549.165 152.628 536.887 170.653 534.902 177.118C532.916 183.583 527.66 202.148 529.5 215.415Z" fill="#09133C"/>
<path d="M596.863 297.935C634.063 297.935 664.226 254.91 664.226 217.664C664.243 209.889 662.909 202.171 660.284 194.852C657.364 194.575 655.262 197.771 654.999 207.214C654.079 240.125 638.384 254.881 638.384 254.881C624.716 252.278 610.836 250.939 596.921 250.882C582.858 250.967 568.831 252.305 555.006 254.881C538.085 226.902 539.939 207.214 539.939 207.214L531.369 202.252C530.171 207.322 529.564 212.513 529.559 217.722C529.5 254.91 559.663 297.935 596.863 297.935Z" fill="#09133C"/>
<path fill-rule="evenodd" clip-rule="evenodd" d="M621.147 257.695C621.349 258.044 621.231 258.491 620.882 258.693C614.235 262.551 606.533 264.194 598.89 263.385C598.489 263.343 598.198 262.983 598.241 262.582C598.283 262.182 598.643 261.891 599.043 261.934C606.378 262.71 613.77 261.133 620.149 257.431C620.498 257.228 620.945 257.347 621.147 257.695Z" fill="#FC6483"/>
<circle cx="620.006" cy="215.231" r="4.00844" fill="#09133C"/>
<circle cx="576.915" cy="215.231" r="4.00844" fill="#09133C"/>
<path d="M728.582 288.968C709.599 309.902 651.903 328.704 633.417 321.679L680.421 393.979C695.324 384.249 730.108 359.401 750.019 337.845C769.93 316.29 779.581 255.088 781.918 227.182C783.914 227.361 787.329 224.817 787.747 220.159C788.389 213.006 793.185 202.537 787.623 204.721C782.061 206.905 764.217 205.806 759.981 204.42C755.746 203.034 757.862 201.882 754.155 213.288C751.19 222.412 754.017 224.79 755.801 224.838C753.056 239.237 743.768 272.221 728.582 288.968Z" fill="#1890F1"/>
<path d="M761.253 159.678C765.695 157.897 764.654 176.288 770.873 171.201C777.091 166.114 785.537 128.305 795.834 141.095C804.072 151.327 791.962 188.648 784.877 206.03C780.246 207.449 769.098 206.058 764.102 205.185C764.773 203.475 765.501 197.787 763.041 188.71C759.967 177.364 756.812 161.459 761.253 159.678Z" fill="#82464C"/>
<circle cx="482.383" cy="247.627" r="27.057" fill="#90CFB2"/>
<path d="M469.698 247.461H494.735M482.216 234.942V259.98" stroke="#1890F1" stroke-width="5.34458"/>
<circle cx="305.751" cy="397.609" r="74.4901" fill="#E6F0FF"/>
<mask id="mask3_67_23217" style="mask-type:alpha" maskUnits="userSpaceOnUse" x="231" y="323" width="150" height="150">
<circle cx="305.751" cy="397.609" r="74.4901" fill="#E6F0FF"/>
</mask>
<g mask="url(#mask3_67_23217)">
<path d="M318.479 360.156C327.615 361.156 346.661 364.371 358.588 365.531C373.496 366.981 376.026 440.651 388.312 463.713C398.141 482.162 415.943 498.893 426.607 505.887L413.685 516.996C399.019 509.465 366.881 494.742 360.613 473.181C358.013 464.233 356.092 458.406 354.737 454.018C359.503 478.619 365.913 506.359 367.37 523.236C369.128 543.59 369.526 556.887 369.505 560.991C359.302 568.866 333.308 583.646 310.953 579.766C288.597 575.886 288.929 553.595 291.888 542.934C287.692 545.648 271.01 546.993 269.19 546.097C263.328 543.209 251.561 503.84 247.632 484.667C243.703 465.495 230.677 410.151 238.119 392.37C245.561 374.589 290.98 354.039 297.582 352.804C302.864 351.815 313.714 357.293 318.479 360.156Z" fill="#1890F1"/>
<path d="M274.803 424.963C277.668 438.621 283.083 468.58 281.833 479.146C280.582 489.712 288.057 526.404 291.951 543.43" stroke="#1172C8" stroke-width="0.668073"/>
</g>
<path d="M345.569 352.606L320.853 336.558C320.853 336.558 300.852 330.707 285.991 339.236C271.13 347.766 268.21 357.413 268.21 357.413L291.002 361.399L270.869 372.105L328.103 462.928L349.517 366.33L328.487 362.727L345.569 352.606Z" fill="#1172C8"/>
<path d="M321.388 361.916L320.321 353.285L289.423 344.785C290.617 349.515 289.92 354.969 289.422 357.105C298.462 359.686 316.543 389.744 318.049 394.095C319.735 389.301 318.372 365.31 321.388 361.916Z" fill="#D99474"/>
<path d="M274.837 319.281C277.648 342.012 296.056 358.444 315.954 355.984C337.888 356.701 347.577 333.366 344.766 310.635C340.853 278.986 325.674 271.21 305.777 273.67C285.879 276.13 272.027 296.551 274.837 319.281Z" fill="#E29C74"/>
<path fill-rule="evenodd" clip-rule="evenodd" d="M310.533 321.226C310.292 321.323 310.173 321.604 310.268 321.853L310.704 321.676C310.268 321.853 310.268 321.853 310.268 321.853L310.269 321.856L310.271 321.86L310.277 321.875C310.282 321.887 310.289 321.904 310.298 321.925C310.315 321.968 310.342 322.029 310.377 322.105C310.449 322.259 310.557 322.478 310.71 322.748C311.015 323.288 311.496 324.033 312.208 324.874C313.634 326.558 315.981 328.619 319.678 330.183L319.686 330.186C324.287 332.033 329.338 332.324 334.107 331.015C334.357 330.946 334.506 330.681 334.44 330.423C334.373 330.165 334.116 330.011 333.866 330.079C329.29 331.335 324.444 331.057 320.028 329.285C316.478 327.783 314.25 325.816 312.913 324.237C312.244 323.447 311.797 322.752 311.519 322.26C311.38 322.014 311.283 321.819 311.222 321.688C311.192 321.622 311.17 321.572 311.157 321.54C311.15 321.524 311.146 321.513 311.143 321.506L311.14 321.499C311.045 321.251 310.773 321.128 310.533 321.226Z" fill="#744F41"/>
<path fill-rule="evenodd" clip-rule="evenodd" d="M269.43 308.142C272.041 312.615 276.061 315.346 281.972 315.405C290.481 315.714 296.873 305.435 298.828 291.413C299.119 291.352 299.408 291.277 299.693 291.188C313.478 286.899 326.191 281.498 331.066 279.353C329.931 278.349 328.739 277.461 327.492 276.7C326.651 276.053 325.848 275.365 325.05 274.682C321.772 271.876 318.601 269.162 313.43 269.802C312.55 269.91 310.581 270.086 308.047 270.312C299.92 271.036 285.983 272.279 283.532 273.498C271.313 279.58 269.17 292.612 269.43 308.142Z" fill="#09133C"/>
<path d="M326.296 281.422C329.084 278.283 335.616 268.458 333.143 258.73C330.85 249.708 319.857 244.75 313.947 245.227C314.915 245.869 318.789 248.439 318.175 251.69C315.857 243.213 304.879 244.824 299.75 245.458C300.24 245.99 303.813 247.496 303.042 250.513C300.177 241.722 285.567 247.847 281.623 250.875C282.31 251.298 285.624 251.396 286.042 254.774C280.034 246.245 270.228 260.412 267.628 264.036C268.436 264.063 271.21 265.066 271.971 266.293C262.815 262.091 259.859 286.461 261.482 288.292C261.482 288.292 261.783 285.588 264.912 284.185C261.128 287.066 259.842 298.656 265.181 304.854C265.181 304.854 266.123 302.198 267.062 301.574C265.806 304.777 264.377 307.799 268.794 315.584L272.443 311.196C271.627 304.946 271.021 291.279 275.118 286.606C280.238 280.766 286.469 274.661 302.241 276.903C311.291 278.188 317.663 283.505 317.349 285.068L326.296 281.422Z" fill="#FC9729"/>
<path fill-rule="evenodd" clip-rule="evenodd" d="M275.404 332.294C271.152 332.82 267.116 328.485 266.39 322.613C265.664 316.74 268.522 311.553 272.775 311.028C275.473 310.694 278.084 312.317 279.818 315.048C278.82 318.556 277.983 324.039 278.681 330.774C277.739 331.604 276.63 332.143 275.404 332.294Z" fill="#D99474"/>
<path d="M335.437 324.281C336.585 316.448 330.193 308.907 327.122 306.595L330.143 323.141C332.151 325.866 334.325 324.675 335.437 324.281Z" fill="#E29C74"/>
<path d="M327.122 306.595C330.193 308.909 336.602 316.584 335.454 324.423C334.342 324.817 332.636 325.284 330.665 323.988" stroke="#744F41" stroke-width="1.00211" stroke-linecap="round" stroke-linejoin="round"/>
<path d="M313.263 301.359C312.177 301.939 309.91 303.798 309.532 306.592M335.831 294.413C336.904 294.406 339.388 295.049 340.731 297.678" stroke="#09133C" stroke-width="1.00211" stroke-linecap="round"/>
<path d="M353.539 405.461C353.345 418.597 353.483 446.477 355.585 452.909" stroke="#1172C8" stroke-width="0.668073"/>
<rect x="324.72" y="402.422" width="4.08795" height="4.08795" rx="1.00211" transform="rotate(-5.06074 324.72 402.422)" fill="white"/>
<rect x="332.542" y="401.766" width="4.08795" height="4.08795" rx="1.00211" transform="rotate(-5.06074 332.542 401.766)" fill="white"/>
<rect x="325.303" y="411.553" width="4.08795" height="4.08795" rx="1.00211" transform="rotate(-5.06074 325.303 411.553)" fill="white"/>
<rect x="325.708" y="421.186" width="4.08795" height="4.08795" rx="1.00211" transform="rotate(-5.06074 325.708 421.186)" fill="white"/>
<rect x="303.241" y="409.531" width="4.08795" height="4.08795" rx="1.00211" transform="rotate(-29.4918 303.241 409.531)" fill="white"/>
<rect x="309.394" y="405.529" width="4.08795" height="4.08795" rx="1.00211" transform="rotate(-29.4918 309.394 405.529)" fill="white"/>
<rect x="305.141" y="397.393" width="4.08795" height="4.08795" rx="1.00211" transform="rotate(-29.4918 305.141 397.393)" fill="white"/>
<circle cx="317.775" cy="309.426" r="2.33826" fill="#09133C"/>
<circle cx="335.813" cy="303.412" r="2.33826" fill="#09133C"/>
<circle cx="874.209" cy="397.613" r="74.4902" fill="#E6F0FF"/>
<mask id="mask4_67_23217" style="mask-type:alpha" maskUnits="userSpaceOnUse" x="799" y="323" width="150" height="150">
<circle cx="874.209" cy="397.611" r="74.4902" fill="#E6F0FF"/>
</mask>
<g mask="url(#mask4_67_23217)">
<path d="M947.7 398.07C941.365 385.098 920.207 371.534 910.42 366.373C903.519 363.476 885.708 359.37 869.677 366.12L869.32 366.271C852.888 373.188 801.514 394.815 776.315 438.011C771.701 462.913 812.912 467.917 811.553 473.689C810.193 479.461 803.405 489.365 800.181 493.596C807.244 503.378 832.513 521.557 877.088 516.016C921.664 510.476 943.419 478.587 947.855 468.249C950.306 451.923 954.035 411.042 947.7 398.07Z" fill="#018FF6"/>
</g>
<path d="M941.997 408.55C946.016 408.861 949.622 404.602 950.051 399.038C950.481 393.474 947.572 388.712 943.553 388.401C939.535 388.09 935.929 392.348 935.499 397.912C935.07 403.476 937.979 408.239 941.997 408.55Z" fill="#EC8129"/>
<path d="M941.541 347.256C945.558 346.601 948.093 341.648 947.203 336.192C946.312 330.736 942.334 326.844 938.317 327.499C934.3 328.153 931.766 333.106 932.656 338.562C933.546 344.018 937.524 347.91 941.541 347.256Z" fill="#EC8129"/>
<path d="M922.034 344.796C928.28 346.594 934.883 342.699 936.784 336.096C938.685 329.494 935.163 322.684 928.917 320.886C922.672 319.088 916.068 322.983 914.167 329.586C912.267 336.188 915.789 342.998 922.034 344.796Z" fill="#EC8129"/>
<path d="M945.198 372.159C951.443 373.957 958.047 370.062 959.948 363.46C961.848 356.857 958.326 350.047 952.081 348.249C945.835 346.452 939.232 350.347 937.331 356.949C935.43 363.552 938.953 370.361 945.198 372.159Z" fill="#EC8129"/>
<path d="M951.34 384.589C957.585 386.387 964.189 382.492 966.09 375.889C967.99 369.287 964.468 362.477 958.223 360.679C951.977 358.881 945.374 362.776 943.473 369.379C941.573 375.981 945.095 382.791 951.34 384.589Z" fill="#EC8129"/>
<path d="M938.026 357.866C944.271 359.664 950.875 355.769 952.775 349.167C954.676 342.564 951.154 335.754 944.909 333.956C938.663 332.159 932.06 336.054 930.159 342.656C928.258 349.259 931.78 356.068 938.026 357.866Z" fill="#EC8129"/>
<path d="M914.537 350.574C920.207 352.206 926.126 348.935 927.758 343.267C929.389 337.599 926.116 331.681 920.446 330.049C914.776 328.417 908.857 331.688 907.226 337.356C905.594 343.024 908.868 348.942 914.537 350.574Z" fill="#EC8129"/>
<path d="M959.38 381.83C955.615 380.159 950.834 382.706 948.7 387.518C946.567 392.33 947.889 397.586 951.654 399.256C955.419 400.927 960.201 398.38 962.334 393.568C964.468 388.756 963.145 383.5 959.38 381.83Z" fill="#EC8129"/>
<path d="M951.623 395.207C948.327 392.996 943.366 394.618 940.542 398.831C937.718 403.043 935.001 404.627 938.297 406.838C945.478 414.481 949.652 411.05 952.476 406.838C955.301 402.625 954.918 397.418 951.623 395.207Z" fill="#EC8129"/>
<path d="M889.288 364.818C891.297 370.037 923.632 393.595 938.643 406.8L953.004 385.825L946.11 356.405L933.593 333.989L892.108 340.86C890.331 346.672 887.278 359.599 889.288 364.818Z" fill="#EC8129"/>
<path d="M848.774 305.675C850.739 300.452 849.272 295.068 845.5 293.65C841.727 292.232 837.076 295.317 835.112 300.54C833.148 305.764 834.614 311.148 838.387 312.566C842.16 313.984 846.81 310.899 848.774 305.675Z" fill="#FC9729"/>
<path d="M839.562 326.352C843.778 326.854 847.703 322.996 848.33 317.734C848.957 312.471 846.047 307.798 841.832 307.296C837.616 306.794 833.69 310.653 833.064 315.915C832.437 321.177 835.346 325.85 839.562 326.352Z" fill="#FC9729"/>
<path d="M911.347 342.128C912.37 336.928 909.823 332.049 905.657 331.229C901.492 330.409 897.285 333.96 896.262 339.16C895.239 344.359 897.786 349.239 901.951 350.058C906.117 350.878 910.324 347.328 911.347 342.128Z" fill="#FC9729"/>
<path d="M894.971 366.308C892.275 359.416 895.437 346.911 897.355 341.519L866.162 357.494C865.299 362.97 862.54 366.277 861.269 367.246C861.488 369.721 863.444 375.306 869.51 377.849C875.576 380.392 889.011 371.215 894.971 366.308Z" fill="#F5B8A9"/>
<path d="M900.487 331.339C897.583 349.749 881.271 360.337 864.628 360.457C848.272 357.877 838.355 340.407 841.258 321.997C844.162 303.587 859.775 290.753 876.131 293.333C892.486 295.913 903.391 312.929 900.487 331.339Z" fill="#F5C6B8"/>
<ellipse cx="869.775" cy="322.988" rx="2.10917" ry="1.95851" transform="rotate(8.96358 869.775 322.988)" fill="#1F6D48"/>
<circle cx="852.066" cy="320.195" r="1.95851" transform="rotate(8.96358 852.066 320.195)" fill="#1F6D48"/>
<path d="M859.22 318.916C857.168 322.253 855.258 330.493 856.88 334.714C858.141 334.455 859.423 334.472 860.308 333.696" stroke="#744F41" stroke-width="1.00211" stroke-linecap="round" stroke-linejoin="round"/>
<path d="M858.022 341.418C859.7 341.734 863.846 341.818 866.997 339.631C870.148 337.444 872.027 335.137 872.573 334.257" stroke="#744F41" stroke-width="1.00211" stroke-linecap="round"/>
<path d="M874.34 315.318C874.96 315.532 876.365 316.161 877.023 316.962C877.681 317.763 878.109 319.05 878.241 319.594" stroke="#FC9729" stroke-width="1.00211" stroke-linecap="round"/>
<path d="M853.181 312.473C852.517 312.364 850.947 312.241 849.979 312.614C849.011 312.988 848.031 313.882 847.661 314.283" stroke="#FC9729" stroke-width="1.00211" stroke-linecap="round"/>
<path d="M898.941 324.255C902.967 324.067 906.019 319.396 905.758 313.821C905.497 308.247 902.022 303.88 897.996 304.068C893.97 304.256 890.917 308.927 891.178 314.502C891.439 320.076 894.915 324.443 898.941 324.255Z" fill="#FC9729"/>
<path d="M891.315 303.51C895.22 302.364 897.124 297.136 895.566 291.832C894.009 286.528 889.581 283.157 885.675 284.303C881.77 285.448 879.867 290.677 881.424 295.981C882.981 301.285 887.41 304.656 891.315 303.51Z" fill="#FC9729"/>
<path d="M856.205 293.832C859.319 289.265 859.118 283.704 855.754 281.412C852.391 279.12 847.14 280.964 844.026 285.531C840.911 290.098 841.113 295.659 844.476 297.951C847.839 300.243 853.09 298.399 856.205 293.832Z" fill="#FC9729"/>
<path d="M864.461 296.852C870.88 297.864 876.952 293.183 878.023 286.397C879.093 279.61 874.757 273.287 868.337 272.275C861.918 271.262 855.846 275.943 854.775 282.73C853.705 289.517 858.041 295.839 864.461 296.852Z" fill="#FC9729"/>
<path d="M893.894 297.836C900.314 298.849 906.386 294.168 907.456 287.381C908.527 280.594 904.19 274.272 897.771 273.259C891.351 272.247 885.279 276.927 884.209 283.714C883.138 290.501 887.475 296.824 893.894 297.836Z" fill="#FC9729"/>
<path d="M905.879 308.879C912.298 309.892 918.37 305.211 919.441 298.424C920.511 291.637 916.175 285.315 909.755 284.302C903.336 283.29 897.264 287.97 896.193 294.757C895.123 301.544 899.459 307.866 905.879 308.879Z" fill="#FC9729"/>
<path d="M910.738 320.625C917.157 321.638 923.229 316.957 924.3 310.17C925.37 303.383 921.034 297.061 914.614 296.048C908.195 295.036 902.123 299.717 901.052 306.503C899.982 313.29 904.318 319.613 910.738 320.625Z" fill="#FC9729"/>
<path d="M880.846 295.473C887.265 296.485 893.337 291.805 894.408 285.018C895.478 278.231 891.142 271.909 884.722 270.896C878.303 269.883 872.231 274.564 871.16 281.351C870.09 288.138 874.426 294.46 880.846 295.473Z" fill="#FC9729"/>
<path d="M899.576 328.738C899.576 328.738 896.126 322.924 897.527 313.389C898.928 303.853 905.366 313.182 899.576 328.738Z" fill="#FC9729"/>
<path d="M878.258 304.921C884.086 305.84 889.556 301.862 890.475 296.036C891.394 290.21 887.414 284.742 881.586 283.823C875.758 282.903 870.289 286.881 869.37 292.707C868.451 298.533 872.43 304.001 878.258 304.921Z" fill="#FC9729"/>
<path d="M895.624 313.846C898.778 311.196 898.588 305.782 895.201 301.753C891.813 297.724 886.51 296.605 883.357 299.255C880.203 301.905 880.393 307.319 883.78 311.348C887.168 315.377 892.471 316.496 895.624 313.846Z" fill="#FC9729"/>
<path d="M919.016 320.687C915.955 317.931 910.619 318.869 907.098 322.782C903.577 326.695 903.205 332.101 906.266 334.857C909.327 337.613 914.662 336.675 918.183 332.762C921.704 328.849 922.077 323.443 919.016 320.687Z" fill="#FC9729"/>
<path d="M919.969 306.772C916.026 305.58 911.596 308.697 910.073 313.736C908.551 318.775 910.512 323.827 914.455 325.02C918.397 326.213 922.828 323.095 924.35 318.056C925.873 313.017 923.911 307.965 919.969 306.772Z" fill="#FC9729"/>
<path d="M907.69 307.276C903.747 306.084 899.317 309.201 897.794 314.24C896.271 319.279 898.233 324.331 902.175 325.524C906.118 326.717 910.548 323.599 912.071 318.56C913.594 313.521 911.632 308.469 907.69 307.276Z" fill="#FC9729"/>
<path d="M897.051 291.567C893.108 290.375 888.678 293.492 887.155 298.531C885.632 303.57 887.594 308.622 891.536 309.815C895.479 311.008 899.909 307.89 901.432 302.851C902.955 297.812 900.993 292.76 897.051 291.567Z" fill="#FC9729"/>
<path d="M902.125 294.198C898.183 293.005 893.752 296.123 892.23 301.162C890.707 306.201 892.668 311.253 896.611 312.446C900.553 313.639 904.984 310.521 906.507 305.482C908.029 300.443 906.068 295.391 902.125 294.198Z" fill="#FC9729"/>
<path d="M840.338 319.113C840.338 319.113 845.417 314.645 847.019 305.141C848.621 295.638 839.618 302.531 840.338 319.113Z" fill="#FC9729"/>
<path d="M859.99 300.819C865.818 301.738 871.288 297.761 872.207 291.935C873.125 286.109 869.146 280.64 863.318 279.721C857.49 278.802 852.02 282.78 851.101 288.606C850.182 294.432 854.162 299.9 859.99 300.819Z" fill="#FC9729"/>
<path d="M851.964 305.111C856.427 302.32 858.274 297.227 856.089 293.736C853.904 290.244 848.515 289.676 844.052 292.466C839.588 295.257 837.741 300.35 839.926 303.842C842.111 307.334 847.501 307.902 851.964 305.111Z" fill="#FC9729"/>
<path d="M880.102 393.204L870.151 380.284C869.643 379.624 869.856 378.666 870.595 378.283L895.316 365.47C895.864 365.186 896.535 365.314 896.939 365.78L901.151 370.629C901.595 371.14 901.586 371.903 901.131 372.404L882.149 393.288C881.59 393.904 880.609 393.864 880.102 393.204Z" fill="#F4F9FF"/>
<path d="M864.367 388.461L871.768 380.95C872.274 380.436 872.281 379.614 871.784 379.091L861.753 368.543C861.272 368.037 860.484 367.987 859.943 368.426L855.436 372.082C854.95 372.476 854.803 373.153 855.08 373.713L862.219 388.116C862.626 388.939 863.723 389.115 864.367 388.461Z" fill="#F4F9FF"/>
<path d="M896.975 332.338C898.276 331.201 899.271 329.384 899.61 327.235C899.949 325.087 899.561 323.051 898.674 321.569C899.762 320.618 901.063 320.144 902.374 320.35C905.25 320.804 907.078 324.37 906.455 328.315C905.833 332.26 902.997 335.09 900.12 334.637C898.81 334.43 897.718 333.578 896.975 332.338Z" fill="#F5B8A9"/>
<circle cx="901.759" cy="334.893" r="2.41048" transform="rotate(8.96358 901.759 334.893)" fill="#FDE533"/>
<circle cx="629.014" cy="530.223" r="74.4901" fill="#E6F0FF"/>
<mask id="mask5_67_23217" style="mask-type:alpha" maskUnits="userSpaceOnUse" x="554" y="455" width="150" height="150">
<circle cx="629.012" cy="530.221" r="74.4901" fill="#E6F0FF"/>
</mask>
<g mask="url(#mask5_67_23217)">
<path d="M540.617 555.005C544.35 548.869 557.294 538.555 565.245 532.354C576.058 526.332 603.507 512.66 610.166 513.386C614.288 513.836 628.995 518.943 637.669 517.522C646.342 516.102 662.874 504.117 665.088 492.306L699.16 511.179C699.16 511.179 693.568 530.601 677.77 548.619C661.972 566.636 672.314 579.132 675.026 595.691C677.738 612.25 680.624 651.838 680.624 651.838C668.587 670.328 660.427 678.949 641.768 685.08C618.433 690.946 605.268 690.773 583.031 675.951L566.648 603.421L561.715 611.34L522.542 588.41C522.542 588.41 536.884 561.141 540.617 555.005Z" fill="#1890F1"/>
</g>
<path d="M706.457 440.084C718.593 469.78 706.457 488.801 695.82 509.177L667.063 493.31L683.408 463.634C691.28 439.75 680.631 429.448 677.091 420.158C671.854 406.415 654.298 398.505 652.949 390.265C651.599 382.024 656.481 390.03 660.835 390.798C664.504 391.446 651.822 372.514 654.861 365.38C657.223 363.682 660.64 377.172 662.508 376.866C663.323 376.733 666.706 376.037 667.578 376.255C668.384 376.456 660.373 363.829 663.411 363.98C670.091 367.791 677.32 380.017 679.667 394.351C681.255 404.046 698.607 420.877 706.457 440.084Z" fill="#F5C6B8"/>
<path d="M632.38 517.231C626.474 516.905 628.247 505.84 628.103 502.844L588.96 478.476C592.933 484.564 595.047 504.296 595.526 511.319C595.713 514.056 593.028 515.88 588.175 518.676C592.299 526.773 611.968 538.439 617.07 539.267C626.2 540.748 631.167 520.152 632.38 517.231Z" fill="#F5B8A9"/>
<ellipse rx="34.7325" ry="41.4184" transform="matrix(-0.981391 0.192019 0.192019 0.981391 619.19 467.614)" fill="#F5C6B8"/>
<circle r="2.44767" transform="matrix(-0.998486 -0.0550117 -0.0550117 0.998486 644.214 459.77)" fill="#09133C"/>
<circle r="2.44767" transform="matrix(-0.998486 -0.0550117 -0.0550117 0.998486 620.545 466.635)" fill="#09133C"/>
<path d="M634.408 463.521C636.876 466.925 638.485 471.099 638.963 477.254C637.417 478.122 635.807 478.919 634.223 478.015" stroke="#744F41" stroke-width="1.00211" stroke-linecap="round" stroke-linejoin="round"/>
<path d="M637.138 486.938C631.452 489.95 622.491 488.85 619.542 481.208" stroke="#744F41" stroke-width="1.00211" stroke-linecap="round"/>
<path d="M615.533 457.578C614.402 458.333 611.9 460.483 610.942 463.045" stroke="#09133C" stroke-width="1.00211" stroke-linecap="round"/>
<path d="M648.59 450.818C647.76 449.819 645.359 447.902 642.4 448.23" stroke="#09133C" stroke-width="1.00211" stroke-linecap="round"/>
<path fill-rule="evenodd" clip-rule="evenodd" d="M595.227 478.899C593.745 477.423 592.592 475.242 592.109 472.688C591.589 469.937 591.952 467.304 592.95 465.333C591.417 463.807 589.533 463.035 587.675 463.386C584.023 464.076 581.858 468.848 582.84 474.044C583.822 479.24 587.579 482.893 591.232 482.202C592.95 481.878 594.339 480.65 595.227 478.899Z" fill="#F5B8A9"/>
<path d="M592.959 465.216C598.824 465.539 599.956 459.337 599.788 456.196C597.643 456.568 589.255 455.819 585.328 455.399C584.18 458.441 584.054 463.704 584.134 465.956C587.146 461.709 591.272 463.693 592.959 465.216Z" fill="#09133C"/>
<ellipse rx="4.38455" ry="3.65922" transform="matrix(-0.713683 0.700468 0.700468 0.713683 589.194 437.808)" fill="#FC9729"/>
<path d="M584.168 465.343C589.56 459.43 596.836 456.644 599.8 455.99L626.262 428.032C621.868 426.223 609.795 418.953 595.285 430.411C580.775 441.868 580.838 459.031 584.168 465.343Z" fill="#1172C8"/>
<path d="M643.738 440.845C617.908 442.486 610.556 446.167 599.585 456.185C602.685 451.807 603.313 444.134 609.441 433.031C615.081 422.811 623.349 414.187 648.399 415.567C664.888 416.475 654.494 443.221 648.463 447.438C647.013 444.09 646.636 443.865 643.738 440.845Z" fill="#FC9729"/>
<path d="M283.236 188.652C282.202 188.436 281.169 189.103 281.148 190.16C281.131 190.98 281.211 191.801 281.389 192.606C281.705 194.036 282.321 195.383 283.196 196.558C284.07 197.732 285.184 198.708 286.464 199.42C287.185 199.822 287.949 200.134 288.739 200.353C289.757 200.635 290.692 199.837 290.782 198.784C290.872 197.732 290.072 196.831 289.09 196.44C288.828 196.336 288.572 196.215 288.325 196.078C287.518 195.628 286.816 195.013 286.264 194.273C285.713 193.532 285.324 192.683 285.125 191.781C285.064 191.505 285.021 191.225 284.997 190.944C284.904 189.892 284.27 188.867 283.236 188.652Z" fill="#90CFB2"/>
<path d="M826.6 543.074C826.028 542.186 824.829 541.918 824.061 542.643C823.464 543.205 822.935 543.839 822.485 544.53C821.687 545.758 821.158 547.141 820.934 548.589C820.709 550.036 820.795 551.514 821.184 552.926C821.403 553.721 821.716 554.485 822.114 555.202C822.627 556.126 823.851 556.233 824.665 555.559C825.478 554.885 825.56 553.683 825.149 552.709C825.04 552.45 824.947 552.183 824.872 551.91C824.627 551.019 824.573 550.087 824.714 549.175C824.856 548.262 825.189 547.39 825.693 546.616C825.847 546.378 826.016 546.152 826.199 545.937C826.885 545.134 827.171 543.963 826.6 543.074Z" fill="#90CFB2"/>
<path d="M866.424 494.871C865.852 493.983 864.653 493.715 863.885 494.44C863.288 495.002 862.759 495.636 862.309 496.327C861.511 497.555 860.982 498.938 860.758 500.385C860.533 501.833 860.619 503.311 861.008 504.723C861.227 505.518 861.539 506.282 861.938 506.999C862.451 507.923 863.675 508.03 864.489 507.356C865.302 506.682 865.384 505.48 864.973 504.506C864.864 504.247 864.771 503.979 864.696 503.706C864.451 502.816 864.397 501.884 864.538 500.971C864.68 500.059 865.013 499.187 865.517 498.413C865.671 498.175 865.84 497.949 866.023 497.734C866.709 496.93 866.995 495.76 866.424 494.871Z" fill="#90CFB2"/>
<path d="M345.667 516.473C345.134 517.385 345.438 518.576 346.432 518.933C347.204 519.21 348.008 519.395 348.828 519.483C350.284 519.638 351.757 519.483 353.149 519.028C354.541 518.573 355.821 517.827 356.903 516.841C357.513 516.285 358.052 515.661 358.511 514.981C359.103 514.105 358.644 512.965 357.675 512.545C356.705 512.125 355.596 512.597 354.914 513.403C354.732 513.618 354.536 513.822 354.327 514.013C353.644 514.635 352.837 515.105 351.96 515.392C351.082 515.679 350.153 515.777 349.235 515.678C348.954 515.648 348.675 515.6 348.401 515.534C347.374 515.287 346.2 515.561 345.667 516.473Z" fill="#90CFB2"/>
<path d="M231.462 246.105C230.427 245.889 229.395 246.556 229.374 247.613C229.357 248.433 229.437 249.254 229.615 250.059C229.931 251.489 230.547 252.836 231.422 254.011C232.296 255.186 233.41 256.161 234.69 256.874C235.411 257.275 236.174 257.587 236.965 257.806C237.983 258.088 238.918 257.29 239.008 256.237C239.098 255.185 238.297 254.284 237.316 253.894C237.054 253.79 236.798 253.668 236.551 253.531C235.744 253.082 235.042 252.466 234.49 251.726C233.938 250.985 233.55 250.136 233.351 249.234C233.29 248.958 233.247 248.678 233.222 248.397C233.13 247.345 232.496 246.32 231.462 246.105Z" fill="#90CFB2"/>
<path d="M749.332 546.432C748.76 545.543 747.561 545.275 746.793 546C746.196 546.563 745.667 547.196 745.217 547.888C744.419 549.115 743.89 550.499 743.666 551.946C743.442 553.393 743.527 554.872 743.916 556.284C744.135 557.079 744.448 557.842 744.846 558.559C745.359 559.483 746.583 559.591 747.397 558.917C748.21 558.243 748.292 557.04 747.882 556.067C747.772 555.807 747.68 555.54 747.604 555.267C747.359 554.377 747.305 553.445 747.447 552.532C747.588 551.619 747.922 550.747 748.425 549.973C748.579 549.736 748.748 549.509 748.931 549.295C749.617 548.491 749.904 547.32 749.332 546.432Z" fill="#90CFB2"/>
<path d="M402.771 583.571C402.237 584.483 402.541 585.674 403.536 586.031C404.308 586.308 405.112 586.493 405.932 586.58C407.388 586.736 408.861 586.581 410.253 586.126C411.645 585.67 412.924 584.925 414.007 583.939C414.617 583.383 415.156 582.758 415.615 582.079C416.206 581.203 415.748 580.063 414.778 579.643C413.809 579.222 412.7 579.694 412.018 580.501C411.836 580.716 411.64 580.92 411.43 581.11C410.748 581.732 409.941 582.202 409.063 582.489C408.186 582.777 407.257 582.874 406.339 582.776C406.057 582.746 405.779 582.698 405.505 582.632C404.478 582.384 403.304 582.659 402.771 583.571Z" fill="#90CFB2"/>
<path d="M279.954 488.278C278.903 488.172 277.946 488.943 278.034 489.996C278.103 490.813 278.269 491.621 278.529 492.404C278.992 493.793 279.745 495.069 280.737 496.146C281.73 497.223 282.939 498.077 284.286 498.652C285.045 498.976 285.837 499.207 286.646 499.343C287.688 499.517 288.535 498.626 288.514 497.57C288.494 496.514 287.604 495.701 286.587 495.415C286.316 495.339 286.049 495.245 285.789 495.134C284.94 494.771 284.177 494.232 283.551 493.553C282.925 492.874 282.451 492.07 282.159 491.194C282.069 490.925 281.998 490.652 281.944 490.375C281.742 489.338 281.005 488.385 279.954 488.278Z" fill="#90CFB2"/>
<path d="M541.35 54.9562C540.316 54.7408 539.284 55.408 539.262 56.4643C539.245 57.2843 539.326 58.1057 539.504 58.911C539.82 60.341 540.435 61.6879 541.31 62.8625C542.185 64.0371 543.299 65.0128 544.579 65.7251C545.299 66.1262 546.063 66.4387 546.854 66.6574C547.872 66.9392 548.807 66.1416 548.897 65.0889C548.987 64.0362 548.186 63.1353 547.204 62.7451C546.942 62.6411 546.687 62.5199 546.439 62.3822C545.633 61.9331 544.93 61.3179 544.379 60.5773C543.827 59.8366 543.439 58.9874 543.24 58.0857C543.179 57.8092 543.136 57.5298 543.111 57.2491C543.019 56.1966 542.385 55.1716 541.35 54.9562Z" fill="#90CFB2"/>
<path d="M919.845 210.83C920.344 209.899 919.995 208.72 918.988 208.401C918.206 208.153 917.395 207.999 916.573 207.942C915.112 207.841 913.646 208.052 912.272 208.559C910.898 209.067 909.648 209.86 908.603 210.886C908.015 211.464 907.499 212.109 907.066 212.805C906.508 213.703 907.01 214.825 907.994 215.208C908.978 215.592 910.069 215.078 910.72 214.246C910.894 214.025 911.082 213.814 911.284 213.615C911.943 212.968 912.731 212.468 913.598 212.148C914.464 211.828 915.388 211.695 916.309 211.759C916.592 211.778 916.872 211.816 917.148 211.872C918.184 212.08 919.346 211.762 919.845 210.83Z" fill="#FC9729"/>
<path d="M931.635 172.952C930.601 172.737 929.569 173.404 929.547 174.46C929.531 175.28 929.611 176.102 929.789 176.907C930.105 178.337 930.721 179.684 931.595 180.859C932.47 182.033 933.584 183.009 934.864 183.721C935.584 184.122 936.348 184.435 937.139 184.654C938.157 184.935 939.092 184.138 939.182 183.085C939.272 182.032 938.471 181.131 937.489 180.741C937.228 180.637 936.972 180.516 936.725 180.378C935.918 179.929 935.215 179.314 934.664 178.573C934.112 177.833 933.724 176.984 933.525 176.082C933.464 175.805 933.421 175.526 933.396 175.245C933.304 174.193 932.67 173.168 931.635 172.952Z" fill="#90CFB2"/>
<path d="M938.507 273.548C937.473 273.333 936.441 274 936.419 275.056C936.402 275.876 936.483 276.697 936.661 277.503C936.977 278.933 937.592 280.28 938.467 281.454C939.342 282.629 940.456 283.605 941.736 284.317C942.456 284.718 943.22 285.03 944.011 285.249C945.029 285.531 945.964 284.733 946.054 283.681C946.143 282.628 945.343 281.727 944.361 281.337C944.099 281.233 943.844 281.112 943.596 280.974C942.79 280.525 942.087 279.91 941.536 279.169C940.984 278.428 940.596 277.579 940.397 276.678C940.336 276.401 940.293 276.122 940.268 275.841C940.176 274.788 939.542 273.763 938.507 273.548Z" fill="#90CFB2"/>
<path d="M435.409 47.9076C436.465 47.8798 437.316 46.9935 437.095 45.9605C436.923 45.1585 436.656 44.3776 436.298 43.6346C435.663 42.3152 434.754 41.1457 433.633 40.2033C432.512 39.2609 431.204 38.5669 429.795 38.1674C429.001 37.9424 428.186 37.8136 427.367 37.7821C426.311 37.7416 425.584 38.7326 425.738 39.7778C425.892 40.823 426.878 41.5162 427.923 41.6705C428.202 41.7116 428.479 41.7709 428.751 41.8481C429.639 42.1001 430.464 42.5376 431.171 43.1319C431.878 43.7261 432.451 44.4635 432.852 45.2954C432.975 45.5505 433.08 45.8126 433.169 46.0802C433.5 47.0833 434.353 47.9354 435.409 47.9076Z" fill="#90CFB2"/>
<path d="M900.833 278.841C901.89 278.813 902.741 277.927 902.52 276.894C902.348 276.092 902.081 275.311 901.723 274.568C901.087 273.249 900.179 272.079 899.058 271.137C897.937 270.194 896.628 269.501 895.219 269.101C894.426 268.876 893.611 268.747 892.791 268.716C891.735 268.675 891.009 269.666 891.163 270.711C891.317 271.757 892.303 272.45 893.348 272.604C893.627 272.645 893.903 272.704 894.176 272.782C895.064 273.034 895.889 273.471 896.596 274.065C897.303 274.66 897.875 275.397 898.276 276.229C898.399 276.484 898.505 276.746 898.593 277.014C898.925 278.017 899.777 278.869 900.833 278.841Z" fill="#90CFB2"/>
<path d="M252.835 168.702C252.84 169.759 253.708 170.629 254.746 170.43C255.551 170.275 256.338 170.025 257.088 169.683C258.421 169.076 259.61 168.193 260.576 167.093C261.542 165.992 262.264 164.699 262.694 163.299C262.936 162.511 263.082 161.698 263.131 160.88C263.194 159.825 262.219 159.077 261.171 159.209C260.123 159.34 259.409 160.311 259.232 161.353C259.185 161.63 259.12 161.906 259.036 162.176C258.765 163.059 258.31 163.874 257.701 164.568C257.092 165.262 256.342 165.819 255.502 166.202C255.244 166.319 254.98 166.419 254.71 166.502C253.7 166.812 252.83 167.646 252.835 168.702Z" fill="#F5C6B8"/>
<path d="M819.515 507.409C818.765 508.153 818.753 509.382 819.622 509.982C820.297 510.449 821.027 510.834 821.797 511.129C823.164 511.654 824.628 511.883 826.09 511.8C827.552 511.718 828.98 511.326 830.28 510.651C831.012 510.271 831.693 509.806 832.312 509.267C833.108 508.573 832.958 507.353 832.129 506.698C831.3 506.042 830.107 506.214 829.241 506.818C829.009 506.979 828.768 507.125 828.516 507.256C827.697 507.682 826.796 507.929 825.874 507.981C824.952 508.033 824.03 507.888 823.168 507.558C822.903 507.456 822.647 507.338 822.399 507.204C821.47 506.701 820.265 506.665 819.515 507.409Z" fill="#F5C6B8"/>
<path d="M769.28 572.378C768.53 573.122 768.518 574.351 769.387 574.951C770.062 575.417 770.792 575.803 771.561 576.098C772.929 576.623 774.392 576.852 775.854 576.769C777.316 576.687 778.745 576.295 780.044 575.62C780.776 575.24 781.458 574.775 782.076 574.236C782.872 573.541 782.722 572.322 781.893 571.666C781.065 571.011 779.872 571.182 779.005 571.787C778.774 571.948 778.532 572.094 778.281 572.225C777.461 572.65 776.561 572.897 775.639 572.949C774.717 573.001 773.794 572.857 772.932 572.526C772.668 572.425 772.411 572.307 772.163 572.172C771.234 571.67 770.029 571.633 769.28 572.378Z" fill="#F5C6B8"/>
<path d="M317.078 538.943C318.081 539.275 319.182 538.729 319.324 537.682C319.434 536.869 319.447 536.044 319.362 535.224C319.21 533.767 318.751 532.359 318.016 531.093C317.28 529.826 316.284 528.73 315.094 527.877C314.423 527.397 313.7 527 312.939 526.693C311.96 526.297 310.94 526.983 310.731 528.019C310.522 529.054 311.215 530.041 312.147 530.54C312.395 530.673 312.635 530.822 312.865 530.987C313.616 531.525 314.244 532.216 314.708 533.014C315.172 533.813 315.461 534.701 315.556 535.619C315.585 535.901 315.596 536.183 315.589 536.465C315.561 537.521 316.075 538.612 317.078 538.943Z" fill="#F5C6B8"/>
<path d="M459.757 565.564C460.76 565.896 461.861 565.35 462.002 564.303C462.112 563.49 462.126 562.665 462.04 561.845C461.889 560.388 461.43 558.98 460.695 557.714C459.959 556.447 458.963 555.351 457.772 554.498C457.102 554.018 456.379 553.621 455.618 553.314C454.638 552.918 453.619 553.604 453.41 554.64C453.201 555.676 453.894 556.662 454.825 557.161C455.074 557.294 455.314 557.443 455.544 557.608C456.294 558.146 456.922 558.837 457.386 559.636C457.85 560.434 458.139 561.322 458.235 562.24C458.264 562.522 458.275 562.805 458.268 563.086C458.24 564.142 458.753 565.233 459.757 565.564Z" fill="#F5C6B8"/>
<path d="M548.071 581.461C549.074 581.792 550.175 581.247 550.316 580.2C550.426 579.387 550.44 578.562 550.354 577.741C550.203 576.285 549.744 574.877 549.008 573.61C548.273 572.344 547.277 571.248 546.086 570.395C545.416 569.914 544.693 569.517 543.932 569.21C542.952 568.815 541.933 569.501 541.724 570.536C541.515 571.572 542.208 572.558 543.139 573.057C543.388 573.19 543.628 573.34 543.858 573.505C544.608 574.043 545.236 574.734 545.7 575.532C546.164 576.331 546.453 577.218 546.549 578.137C546.578 578.418 546.589 578.701 546.582 578.983C546.554 580.039 547.067 581.129 548.071 581.461Z" fill="#F5C6B8"/>
<path d="M510.95 35.0071C510.955 36.0635 511.823 36.9337 512.86 36.7347C513.666 36.5801 514.452 36.33 515.203 35.9881C516.535 35.3809 517.724 34.4978 518.69 33.3973C519.657 32.2967 520.379 31.0037 520.808 29.6037C521.05 28.8153 521.197 28.003 521.246 27.1843C521.309 26.1297 520.334 25.3818 519.286 25.5134C518.237 25.645 517.523 26.6157 517.346 27.6573C517.299 27.9352 517.234 28.2103 517.151 28.481C516.88 29.3637 516.425 30.179 515.816 30.8729C515.206 31.5669 514.457 32.1237 513.616 32.5065C513.359 32.6239 513.094 32.7242 512.825 32.8068C511.815 33.1168 510.945 33.9506 510.95 35.0071Z" fill="#90CFB2"/>
<path d="M923.521 247.12C923.526 248.177 924.393 249.047 925.431 248.848C926.236 248.693 927.023 248.443 927.773 248.101C929.106 247.494 930.295 246.611 931.261 245.511C932.228 244.41 932.949 243.117 933.379 241.717C933.621 240.929 933.768 240.116 933.817 239.298C933.88 238.243 932.905 237.495 931.856 237.627C930.808 237.758 930.094 238.729 929.917 239.771C929.87 240.048 929.805 240.324 929.722 240.594C929.451 241.477 928.996 242.292 928.386 242.986C927.777 243.68 927.027 244.237 926.187 244.62C925.929 244.737 925.665 244.837 925.396 244.92C924.386 245.23 923.515 246.064 923.521 247.12Z" fill="#F5C6B8"/>
<path d="M653.894 52.1985C653.899 53.2549 654.767 54.1251 655.805 53.9261C656.61 53.7715 657.396 53.5214 658.147 53.1795C659.48 52.5723 660.668 51.6892 661.635 50.5887C662.601 49.4881 663.323 48.1951 663.753 46.7951C663.995 46.0067 664.141 45.1944 664.19 44.3757C664.253 43.3211 663.278 42.5732 662.23 42.7048C661.182 42.8364 660.467 43.8071 660.291 44.8488C660.244 45.1266 660.178 45.4017 660.095 45.6724C659.824 46.5552 659.369 47.3704 658.76 48.0644C658.151 48.7583 657.401 49.3151 656.561 49.6979C656.303 49.8153 656.039 49.9156 655.769 49.9982C654.759 50.3082 653.889 51.142 653.894 52.1985Z" fill="#F5C6B8"/>
<path d="M469.576 60.3429C469.328 59.3158 468.284 58.6681 467.32 59.1C466.571 59.4353 465.863 59.8593 465.211 60.3643C464.054 61.2613 463.099 62.3936 462.411 63.6866C461.723 64.9796 461.318 66.4038 461.221 67.8651C461.166 68.688 461.21 69.5121 461.35 70.3202C461.531 71.3612 462.652 71.8653 463.642 71.4966C464.632 71.1279 465.104 70.0191 465.037 68.9647C465.019 68.6835 465.02 68.4008 465.038 68.1182C465.099 67.1968 465.355 66.2988 465.789 65.4836C466.223 64.6683 466.824 63.9543 467.554 63.3888C467.778 63.2154 468.013 63.0571 468.256 62.9148C469.168 62.3813 469.823 61.37 469.576 60.3429Z" fill="#F5C6B8"/>
<path d="M627.785 60.0128C627.538 58.9857 626.493 58.338 625.529 58.7699C624.781 59.1052 624.073 59.5292 623.421 60.0343C622.263 60.9312 621.309 62.0636 620.621 63.3565C619.933 64.6495 619.527 66.0737 619.43 67.535C619.376 68.3579 619.42 69.1821 619.56 69.9902C619.741 71.0311 620.861 71.5353 621.851 71.1665C622.841 70.7978 623.314 69.689 623.247 68.6346C623.229 68.3534 623.229 68.0707 623.248 67.7882C623.309 66.8667 623.565 65.9688 623.998 65.1535C624.432 64.3382 625.034 63.6243 625.764 63.0587C625.988 62.8853 626.222 62.7271 626.465 62.5848C627.377 62.0512 628.033 61.0399 627.785 60.0128Z" fill="#F5C6B8"/>
<path d="M966.81 220.999C966.563 219.972 965.519 219.324 964.554 219.756C963.806 220.092 963.098 220.516 962.446 221.021C961.288 221.918 960.334 223.05 959.646 224.343C958.958 225.636 958.552 227.06 958.455 228.521C958.401 229.344 958.445 230.168 958.585 230.976C958.766 232.017 959.886 232.522 960.876 232.153C961.867 231.784 962.339 230.675 962.272 229.621C962.254 229.34 962.254 229.057 962.273 228.774C962.334 227.853 962.59 226.955 963.024 226.14C963.457 225.325 964.059 224.611 964.789 224.045C965.013 223.872 965.247 223.713 965.49 223.571C966.402 223.038 967.058 222.026 966.81 220.999Z" fill="#F5C6B8"/>
<path d="M682.54 63.5441C682.292 62.517 681.248 61.8692 680.284 62.3012C679.535 62.6365 678.827 63.0604 678.175 63.5655C677.018 64.4625 676.063 65.5948 675.375 66.8878C674.688 68.1808 674.282 69.6049 674.185 71.0663C674.13 71.8892 674.174 72.7133 674.315 73.5214C674.495 74.5624 675.616 75.0665 676.606 74.6978C677.596 74.3291 678.068 73.2203 678.001 72.1659C677.983 71.8847 677.984 71.6019 678.002 71.3194C678.063 70.398 678.319 69.5 678.753 68.6847C679.187 67.8695 679.789 67.1555 680.519 66.59C680.742 66.4166 680.977 66.2583 681.22 66.116C682.132 65.5824 682.787 64.5712 682.54 63.5441Z" fill="#F5C6B8"/>
<path d="M605.345 32.2687C605.097 31.2416 604.053 30.5938 603.089 31.0258C602.34 31.3611 601.632 31.785 600.98 32.2901C599.822 33.1871 598.868 34.3194 598.18 35.6124C597.492 36.9054 597.086 38.3295 596.99 39.7909C596.935 40.6138 596.979 41.4379 597.119 42.246C597.3 43.287 598.421 43.7911 599.411 43.4224C600.401 43.0537 600.873 41.9449 600.806 40.8905C600.788 40.6093 600.788 40.3265 600.807 40.044C600.868 39.1226 601.124 38.2246 601.558 37.4094C601.992 36.5941 602.593 35.8801 603.323 35.3146C603.547 35.1412 603.781 34.9829 604.025 34.8406C604.936 34.3071 605.592 33.2958 605.345 32.2687Z" fill="#90CFB2"/>
<path d="M250.887 222.344C251.901 222.642 252.984 222.061 253.09 221.01C253.173 220.194 253.159 219.368 253.047 218.551C252.848 217.101 252.343 215.708 251.566 214.467C250.788 213.226 249.757 212.163 248.539 211.35C247.853 210.892 247.117 210.519 246.346 210.237C245.354 209.874 244.358 210.594 244.184 211.636C244.009 212.678 244.734 213.64 245.681 214.108C245.934 214.233 246.179 214.375 246.414 214.532C247.182 215.045 247.833 215.714 248.323 216.497C248.813 217.28 249.131 218.158 249.257 219.073C249.295 219.353 249.316 219.635 249.318 219.917C249.325 220.973 249.874 222.046 250.887 222.344Z" fill="#FC9729"/>
<path d="M779.895 543.624C780.393 544.556 781.567 544.92 782.391 544.259C783.031 543.747 783.61 543.158 784.114 542.505C785.009 541.346 785.647 540.01 785.988 538.585C786.328 537.161 786.363 535.68 786.089 534.242C785.934 533.431 785.684 532.645 785.345 531.898C784.909 530.936 783.697 530.73 782.832 531.336C781.966 531.942 781.788 533.134 782.118 534.138C782.207 534.405 782.277 534.679 782.33 534.957C782.503 535.864 782.481 536.798 782.267 537.696C782.052 538.594 781.649 539.437 781.085 540.168C780.912 540.392 780.725 540.604 780.526 540.803C779.777 541.549 779.397 542.692 779.895 543.624Z" fill="#FC9729"/>
<path d="M720.732 591.296C721.23 592.228 722.404 592.592 723.228 591.931C723.868 591.418 724.447 590.83 724.951 590.177C725.845 589.018 726.484 587.682 726.825 586.257C727.165 584.833 727.199 583.352 726.925 581.913C726.771 581.103 726.521 580.317 726.182 579.57C725.745 578.608 724.534 578.402 723.668 579.008C722.803 579.614 722.625 580.806 722.955 581.81C723.043 582.077 723.114 582.351 723.167 582.629C723.34 583.536 723.318 584.47 723.103 585.368C722.889 586.266 722.486 587.108 721.922 587.839C721.749 588.064 721.562 588.276 721.362 588.475C720.614 589.22 720.234 590.364 720.732 591.296Z" fill="#FC9729"/>
<path d="M367.309 557.87C367.914 557.004 367.707 555.793 366.745 555.357C365.997 555.019 365.211 554.769 364.4 554.616C362.962 554.343 361.481 554.379 360.057 554.72C358.633 555.062 357.297 555.701 356.139 556.597C355.486 557.102 354.898 557.681 354.386 558.321C353.726 559.146 354.091 560.32 355.023 560.817C355.955 561.314 357.099 560.933 357.844 560.184C358.043 559.984 358.255 559.797 358.479 559.624C359.209 559.059 360.051 558.656 360.949 558.44C361.847 558.225 362.781 558.203 363.688 558.375C363.966 558.427 364.24 558.498 364.508 558.586C365.512 558.915 366.703 558.736 367.309 557.87Z" fill="#FC9729"/>
<path d="M414.217 545.651C413.274 545.176 412.104 545.553 411.81 546.568C411.582 547.355 411.447 548.17 411.41 548.994C411.346 550.457 411.592 551.917 412.133 553.278C412.674 554.639 413.498 555.869 414.55 556.889C415.142 557.462 415.799 557.962 416.506 558.378C417.416 558.913 418.526 558.385 418.885 557.391C419.244 556.398 418.704 555.32 417.857 554.689C417.631 554.521 417.415 554.338 417.212 554.141C416.549 553.498 416.029 552.722 415.688 551.864C415.347 551.006 415.192 550.085 415.233 549.163C415.245 548.88 415.276 548.599 415.325 548.321C415.508 547.281 415.161 546.127 414.217 545.651Z" fill="#FC9729"/>
<path d="M501.113 575.62C500.17 575.144 499 575.522 498.706 576.536C498.478 577.324 498.343 578.138 498.306 578.962C498.242 580.425 498.488 581.886 499.029 583.247C499.57 584.608 500.394 585.838 501.446 586.857C502.038 587.431 502.695 587.931 503.402 588.347C504.312 588.882 505.422 588.353 505.781 587.36C506.14 586.366 505.6 585.289 504.753 584.658C504.527 584.49 504.311 584.307 504.108 584.11C503.445 583.467 502.925 582.691 502.584 581.833C502.243 580.975 502.088 580.054 502.129 579.132C502.141 578.849 502.172 578.568 502.221 578.29C502.404 577.25 502.057 576.096 501.113 575.62Z" fill="#FC9729"/>
<path d="M487.645 47.9129C486.782 48.523 486.567 49.7329 487.325 50.4687C487.913 51.04 488.569 51.5409 489.28 51.9596C490.542 52.7032 491.947 53.1707 493.402 53.3312C494.858 53.4917 496.331 53.3416 497.725 52.8908C498.51 52.6369 499.259 52.2909 499.958 51.8616C500.858 51.3086 500.911 50.0808 500.203 49.2975C499.494 48.5143 498.289 48.4859 497.334 48.9384C497.079 49.0591 496.817 49.1635 496.547 49.2506C495.669 49.5349 494.74 49.6295 493.822 49.5283C492.904 49.4271 492.018 49.1324 491.222 48.6635C490.978 48.5198 490.745 48.3606 490.522 48.1874C489.689 47.5377 488.507 47.3029 487.645 47.9129Z" fill="#FC9729"/>
<path d="M703.424 77.0458C702.561 77.6558 702.346 78.8657 703.104 79.6016C703.692 80.1728 704.348 80.6737 705.059 81.0924C706.321 81.836 707.726 82.3035 709.182 82.464C710.637 82.6245 712.111 82.4744 713.504 82.0236C714.289 81.7697 715.038 81.4237 715.737 80.9944C716.637 80.4414 716.691 79.2137 715.982 78.4304C715.273 77.6471 714.068 77.6187 713.113 78.0712C712.858 78.1919 712.596 78.2963 712.326 78.3834C711.448 78.6677 710.519 78.7623 709.601 78.6611C708.683 78.5599 707.797 78.2652 707.001 77.7963C706.757 77.6526 706.524 77.4934 706.302 77.3202C705.468 76.6705 704.286 76.4357 703.424 77.0458Z" fill="#FC9729"/>
<path d="M564.916 63.0227C565.222 64.034 566.301 64.6212 567.239 64.1351C567.967 63.7577 568.65 63.2941 569.272 62.7528C570.377 61.7913 571.265 60.6065 571.879 59.2764C572.492 57.9464 572.816 56.5014 572.829 55.0369C572.837 54.2122 572.746 53.3919 572.56 52.5931C572.32 51.5642 571.173 51.1247 570.205 51.5492C569.238 51.9737 568.829 53.1076 568.956 54.1564C568.99 54.4361 569.006 54.7184 569.004 55.0016C568.995 55.925 568.791 56.8361 568.404 57.6747C568.018 58.5133 567.457 59.2604 566.761 59.8666C566.547 60.0525 566.322 60.2238 566.088 60.3798C565.208 60.9644 564.611 62.0113 564.916 63.0227Z" fill="#FC9729"/>
<path d="M701.433 60.8899C701.739 61.9012 702.819 62.4884 703.757 62.0023C704.485 61.6249 705.168 61.1613 705.79 60.6199C706.895 59.6585 707.783 58.4736 708.396 57.1436C709.009 55.8136 709.333 54.3686 709.347 52.9041C709.354 52.0794 709.263 51.2591 709.077 50.4603C708.838 49.4313 707.69 48.9918 706.723 49.4164C705.755 49.8409 705.347 50.9748 705.474 52.0236C705.508 52.3033 705.523 52.5856 705.521 52.8688C705.512 53.7922 705.308 54.7033 704.921 55.5419C704.535 56.3805 703.975 57.1276 703.278 57.7338C703.065 57.9197 702.84 58.091 702.605 58.247C701.725 58.8316 701.128 59.8785 701.433 60.8899Z" fill="#FC9729"/>
<path d="M974.478 270.794C974.784 271.806 975.864 272.393 976.802 271.907C977.53 271.529 978.213 271.066 978.835 270.524C979.939 269.563 980.828 268.378 981.441 267.048C982.054 265.718 982.378 264.273 982.392 262.808C982.399 261.984 982.308 261.163 982.122 260.365C981.883 259.336 980.735 258.896 979.768 259.321C978.8 259.745 978.392 260.879 978.519 261.928C978.553 262.208 978.568 262.49 978.566 262.773C978.557 263.696 978.353 264.608 977.966 265.446C977.58 266.285 977.02 267.032 976.323 267.638C976.109 267.824 975.885 267.995 975.65 268.151C974.77 268.736 974.173 269.783 974.478 270.794Z" fill="#FC9729"/>
<path d="M895.724 188.062C896.029 189.073 897.109 189.66 898.047 189.174C898.775 188.797 899.458 188.333 900.08 187.792C901.185 186.83 902.073 185.646 902.686 184.315C903.299 182.985 903.623 181.54 903.637 180.076C903.645 179.251 903.554 178.431 903.368 177.632C903.128 176.603 901.98 176.164 901.013 176.588C900.045 177.013 899.637 178.147 899.764 179.195C899.798 179.475 899.814 179.758 899.811 180.041C899.803 180.964 899.598 181.875 899.212 182.714C898.825 183.552 898.265 184.299 897.568 184.906C897.355 185.092 897.13 185.263 896.895 185.419C896.015 186.003 895.418 187.05 895.724 188.062Z" fill="#FC9729"/>
</svg>
